<svg version="1.1" id="Layer_1" xmlns="http://www.w3.org/2000/svg" xmlns:xlink="http://www.w3.org/1999/xlink" x="0px" y="0px" width="100%" height="100%" viewBox="0 0 400 368" style="enable-background:new 0 0 400 368;" xml:space="preserve" preserveAspectRatio="none"><title>Asset 8</title><g><g id="Layer_1-2"><path style=";" d="M55.4700012,91.7192993h-0.0008011 C55.4700012,91.7154999,55.4660988,91.7257004,55.4700012,91.7192993z" fill="#14242f" data-color-group="0"/><polygon style=";" points="34.7900009,205.4869995 34.7890015,205.4810028 34.7900009,205.4920044 " fill="#14242f" data-color-group="0"/><path style=";" d="M399.9971008,184.3471069l-0.0073853-3c0.0137939-1-0.0548096-1.9985962-0.0813904-2.997406 l-0.1133118-2.9951935l-0.2099915-2.9891052c-0.0714111-0.9958038-0.1282959-1.9927979-0.2467957-2.9842987 c-0.2149048-1.9846954-0.3866882-3.9734039-0.6929932-5.9450073c-0.2200012-1.5440979-0.3900146-2.9441071-0.6019897-3.9331055 c-0.0757751-0.5234222-0.1900024-1.0405426-0.3417053-1.5471954c0.043457,0.5889893,0.1192322,1.1751251,0.2269897,1.7557983 l0.1300049,0.8507996c0.0386047,0.305603,0.0799866,0.6300049,0.1227112,0.9707031 c0.0899963,0.6799927,0.1886902,1.4205017,0.2907104,2.1891937l0.2247925,1.6804962l0.1687927,1.6873932l0.3337097,3.3759003 l0.218689,3.3863068l0.1077881,1.6934967l0.0517883,1.6965027l0.1004944,3.3936005l-0.0108032,3.3961029 c-0.0038147,0.5661011,0.0010071,1.1324005-0.0100098,1.6983032l-0.0621948,1.6974945 c-0.0441895,1.1318054-0.0769043,2.2640076-0.1306152,3.395401l-0.2374878,3.3905029 c-0.0429993,0.5648041-0.0715027,1.1309052-0.1264038,1.6947937l-0.1748962,1.6907959 c-0.120697,1.1268005-0.2242126,2.2559052-0.3591003,3.3811951l-0.4616089,3.3699951 c-0.0816956,0.5608063-0.1434021,1.1248016-0.2414856,1.6835022l-0.2864075,1.6766968 c-0.1961975,1.1168976-0.3699951,2.2380981-0.5846863,3.3516998c-0.4678955,2.2200012-0.872406,4.4539948-1.4345093,6.6537018 c-1.0073853,4.4268951-2.3129883,8.7812042-3.7088013,13.102005c-0.7529907,2.1425934-1.459198,4.3023987-2.3074036,6.4109039 l-0.6123962,1.5899963c-0.2051086,0.5299988-0.401886,1.0626068-0.6312866,1.5823975l-1.3309937,3.1378937 c-0.4276123,1.0531006-0.9299927,2.0729065-1.4031982,3.1060944l-0.7181091,1.5458984 c-0.2385864,0.5157013-0.4747009,1.0326996-0.7384949,1.5361938c-1.031189,2.0252991-2.0278015,4.0693054-3.1532898,6.0455933 c-0.5535889,0.9928131-1.083313,1.9987946-1.6564026,2.9810028c-0.5706177,0.9833984-1.1539612,1.959259-1.75,2.9276123 c-0.5960999,0.9683533-1.2046509,1.928833-1.8258057,2.8815002l-0.9312134,1.4117126l-0.713501,1.5333862l0.3919067-0.8687134 l0.1932983-0.4299927c0.0560913-0.1444092,0.1284485-0.2819519,0.2156067-0.4100037l1.0224915-1.5971069 c0.6775818-1.0742188,1.3412476-2.1605225,1.9909058-3.2590027c0.6478882-1.0856018,1.2908936-2.1747131,1.8965149-3.28479 l1.8099976-3.3343048c10.39328-19.6081543,16.3742676-41.2513733,17.5241089-63.4138947 c0.0183105-0.3446045,0.0331116-0.6894073,0.0490112-1.0341034c0.0147095-0.328598,0.0299988-0.6571045,0.0422058-0.9857941 c0.0255737-0.645401,0.046814-1.2907562,0.0635986-1.9360962c0.0163879-0.5294952,0.0427856-1.0536957,0.046814-1.571106 c0-0.2975006-0.0007935-0.5868988-0.0011902-0.8800049c0.295105-28.1692963-7.3305969-56.3000031-23.5552979-80.1500015 c-6.8218689-9.9798203-14.9050903-19.0359955-24.0487671-26.9434433c-1.4351807-3.421669-3.0390015-6.764534-4.8113098-10.0286026 c0.0249939,0.0100021,0.0369873-0.0039978,0.0344849-0.0457001c1.5846863,2.6673965,2.7882996,4.8865967,3.711792,6.6080017 c0.4608459,0.8503952,0.8547668,1.5770645,1.1817017,2.1800003c0.1520996,0.2692032,0.2892151,0.5033035,0.4125061,0.7046967 c0.0276794,0.0495682,0.0590515,0.0970001,0.093811,0.1418991l0.1416931,0.0914001l0.254303,0.1569977 c0.2205505,0.0891953,0.4341431,0.1723328,0.6408081,0.2493973c-0.1217957-0.1408005-0.2755127-0.3095016-0.4563904-0.5018005 l-0.1412048-0.1490021c-0.045105-0.0539017-0.1123047-0.0945969-0.1257019-0.1771011l-0.1625977-0.4676971 c-0.0589905-0.1650696-0.1214294-0.3396683-0.1872864-0.5238037l-0.270813-0.7156982 c-0.1931152-0.498497-0.4200134-1.0355988-0.6600037-1.6186981c-1.2571411-2.9834518-2.6641541-5.9015045-4.2156982-8.7430038 c-0.364502-0.7016983-0.7637024-1.3838005-1.1442871-2.0770988c0.4328918,0.6142998,0.8811951,1.221199,1.3031006,1.8448982 c-3.0977478-6.0429611-6.7794189-11.76828-10.9924011-17.094101c-2.4165955-3.0783005-5.0458984-6.0558014-7.6326904-8.8016014 c-2.5810852-2.7526016-5.168396-5.2173996-7.4414062-7.321701l-1.7420044-1.5468998 c-0.5866089-0.5090008-1.1859131-1.0034008-1.7788086-1.5060997c-1.1774902-1.0160999-2.4124146-1.9620991-3.6249084-2.9391003 c-3.4021912-2.6479092-6.9555664-5.095644-10.6420898-7.3307991c-2.1900024-1.3465996-4.612793-2.6712999-7.2030029-4.0063 c-2.6162109-1.2807999-5.3987122-2.6062002-8.3818054-3.7378998c-4.1768494-1.63134-8.4464722-3.014255-12.7865906-4.1415 c-1.3738098-0.3217998-2.7399902-0.6585999-4.1142883-0.9636002c-1.3800049-0.2726998-2.7571106-0.5788002-4.1531982-0.8243999 c5.3017578,0.885035,10.553894,2.0451365,15.7351685,3.4756136c3.3128967,0.9550996,4.6300049,1.2294002,3.4440002,0.6146998 c-0.5119934-0.2600002-1.4346008-0.6591001-2.7247925-1.1799998c-0.6455078-0.2592998-1.3931885-0.5089998-2.2229004-0.8042998 c-0.8320007-0.2858-1.7455139-0.6224999-2.7557983-0.914c-5.1746216-1.6032946-10.4604492-2.8226023-15.8145142-3.648 l-2.4465942-0.3756C259.2061462,1.1891667,258.3602295,1.0832,257.5007019,0.9756 c-1.7182007-0.2325-3.4969025-0.3633-5.3207092-0.5391c-3.6519928-0.2651-7.5-0.4536-11.4913025-0.4353 c-3.9900055,0.02-8.1208954,0.192-12.3336945,0.5534c-4.2100067,0.3765-8.4958954,0.9469-12.7886047,1.71 c-2.8647308,0.5082002-5.7093811,1.0900333-8.533905,1.7454998c-2.8209381,0.6626663-5.6178894,1.3938332-8.3908997,2.1935 c-2.7743073,0.7926998-5.5169067,1.6659999-8.2350922,2.5888996c-0.6799927,0.2307997-1.3600006,0.46-2.0337982,0.7030001 l-0.5063934,0.1800003L187.7631989,9.7121c-0.0018616,0.000206-0.0037384,0.000206-0.0056,0l-1.2825012-0.0430002 c-0.7253418-0.0199995-1.4506073-0.035367-2.1757965-0.0460997c-2.9008636-0.0387993-5.7988892,0.0112-8.6941071,0.1499996 c-1.4466705,0.070734-2.8916931,0.1636-4.3350983,0.2785997c-0.7167969,0.0548-1.4533997,0.1224003-2.1522064,0.1871996 l-2.1071014,0.2039003c-5.7691498,0.5127773-11.4994965,1.394784-17.1558075,2.6406002 c-2.9265747,0.6702137-5.8102875,1.5154343-8.6356049,2.5311003c-2.7276001,0.9873991-5.3889923,2.0570993-8.0039978,3.1636 c-2.6123047,1.1088009-5.1786957,2.2535992-7.7120972,3.4006996l-3.7787018,1.7161007L119.8296814,24.757 c-0.6676025,0.3085003-1.3361969,0.6149998-1.995697,0.9400005c-5.2674026,2.5642967-10.3100357,5.5666237-15.0746994,8.9753017 c-1.1845398,0.8444023-2.3522644,1.7071686-3.5031967,2.5882988l-0.905899,0.7020988l-1.4919968,0.6689987 c-2.5933304,1.1781349-5.1604385,2.4083366-7.7013016,3.6906013c-2.5400009,1.2831993-5.0528336,2.6162682-7.5384979,3.9991989 c-1.2415009,0.6977005-2.4753036,1.4289017-3.7133026,2.1427002l-1.8537979,1.0800018l-1.821991,1.1357994 c-4.887001,2.9799995-9.5924988,6.2635994-14.1808014,9.717598l-3.415699,2.6300011l-3.329998,2.7500038 c-0.5508995,0.4638977-1.1189003,0.9065018-1.6557007,1.3884964l-1.6180038,1.4368973l-1.6180992,1.4384995 c-0.5400009,0.4785004-1.0821991,0.9553986-1.5979996,1.463501l-3.1352005,3.0033035 c-0.5299988,0.4927979-1.0309982,1.0177994-1.5341988,1.5406036l-1.5125008,1.5660934l-1.5121994,1.5674973 c-0.5056992,0.5211029-0.9742012,1.0809021-1.4631004,1.6200027c-0.9662666,1.0892639-1.9331322,2.1792679-2.9006004,3.2699966 c-1.8340988,2.2757034-3.7418995,4.4899979-5.448101,6.8858032l-1.3118,1.7690964 c-0.2173004,0.2959976-0.4400005,0.5877991-0.6527996,0.8873978l-0.6159992,0.9172974l-2.4619007,3.6747971 c-0.2108994,0.3022003-0.3985004,0.6214981-0.5883999,0.9391022l-0.5713997,0.9517975l-1.1417999,1.9055023 c-0.3764992,0.6380005-0.7693996,1.2656021-1.1317997,1.9132004l-1.0443001,1.9712982l-1.0428009,1.9736023l-0.5209007,0.9876022 c-0.1777,0.3268967-0.3183994,0.6748962-0.4792995,1.0114975c-0.6226673,1.358139-1.2458,2.7171402-1.8694,4.0770035 c-1.1252661,2.5774689-2.2519331,5.1585999-3.3800001,7.7434006c-1.1422997,2.6055984-2.2985001,5.245697-3.4087,7.9575043 c-1.1113,2.7091064-2.1800003,5.4837952-3.1377001,8.3486023c-0.9676437,2.8957214-1.7825975,5.8402252-2.4414999,8.8213959 c-0.9784,4.3800049-1.6547,8.7310028-2.1747999,13.0238037c-0.26,2.146698-0.479,4.2794952-0.6727,6.3961029 c-0.0870667,1.0765381-0.1740333,2.1518402-0.2609,3.2259064c-0.084,1.0753021-0.13,2.1519928-0.1963,3.2259979 c-0.434714,8.5339203-0.1684883,17.0891266,0.796,25.5794983c1.9117587,16.7380676,6.7115974,33.0178528,14.1862001,48.115799 c1.8147001,3.751297,3.8375006,7.3894958,5.9420004,10.9727936c1.0804996,1.7745972,2.1436996,3.5599976,3.2938995,5.2893982 c0.5720997,0.8662109,1.1138992,1.7536011,1.7117004,2.6022034l1.7670994,2.5640869 c0.5783005,0.862793,1.2124004,1.6846008,1.8183002,2.5274048c0.6193008,0.8327942,1.2099991,1.6879883,1.8535995,2.5021973 c1.2700005,1.64151,2.5271988,3.2955017,3.8591003,4.8891907c0.6635017,0.7984924,1.2999992,1.620697,1.9869995,2.3999939 l2.0354004,2.3609924c0.6693993,0.7958069,1.3879013,1.5472107,2.0811005,2.3225098l1.0491982,1.1546936l0.2624016,0.2886047 l0.1069984,0.1180115c0.0530014,0.0669861,0.2106018,0.267395,0.3163986,0.4024048 c5.1877899,6.6946716,11.0084381,12.8739929,17.3813019,18.4523926c3.2044029,2.803009,6.5514297,5.4539795,10.0410995,7.9529114 c0.8787003,0.612793,1.7510986,1.236908,2.6381989,1.841095l2.6863022,1.7799988l2.7330017,1.718811l2.0355988,1.2149963 l0.013298,0.0069885c0.0225983,0.0223083,0.0412979,0.0466003,0.063797,0.0718994l0.2822037,0.3435974 c0.3236008,0.4010925,0.6576996,0.7937012,0.9891968,1.1879883c0.6585999,0.7922058,1.3387985,1.5657043,2.0129013,2.3435059 c1.3646011,1.5414124,2.7583694,3.0535889,4.1812973,4.5365906c1.4307327,1.4750671,2.8897629,2.9194031,4.3770981,4.3330994 c1.4948654,1.4053955,3.0173645,2.7783813,4.5674973,4.118988c1.5574036,1.3318176,3.1416626,2.6292725,4.7528,3.892395 c1.6075974,1.2659912,3.2851028,2.4457092,4.944603,3.6427917c0.8199997,0.6124878,1.6900024,1.1524048,2.5379028,1.72229 c0.8559036,0.5581055,1.6970978,1.1387024,2.5646973,1.6763l2.6177979,1.5855103 c0.4375,0.2615967,0.8700027,0.5325928,1.3114014,0.7861023l1.3368988,0.7399902l2.6729965,1.4768982l2.7237015,1.3738098 l1.3619995,0.6842041c0.452301,0.2314148,0.921402,0.4271851,1.3812027,0.6422119l2.7712021,1.2608032 c0.4586029,0.2171936,0.9308014,0.4024048,1.3995056,0.5954895l1.4071045,0.5761108l1.4067993,0.5752869l0.7032928,0.2872009 l0.7129974,0.2614136c1.9048004,0.6871948,3.792099,1.4200134,5.7272949,2.0083923 c0.9633942,0.3060913,1.9214935,0.6282043,2.888504,0.9200134l2.9167938,0.8179932l1.4577942,0.4078979l1.4716034,0.3532104 l2.9420013,0.7037964c0.9844055,0.2166138,1.9756927,0.3999939,2.9627991,0.6014099 c0.9889069,0.1921082,1.972702,0.4100037,2.9700012,0.553009l2.9821014,0.4762878l0.7451935,0.1185913l0.7490997,0.0921936 l1.4981995,0.1810913c0.9994049,0.1131897,1.9953003,0.2567139,2.996994,0.3435059l3.0057068,0.2459106 c0.5010071,0.0380859,1.0012054,0.0874023,1.5027008,0.1158142l1.5059052,0.0651855l3.0099945,0.1278992 c2.0352936,0.0549927,4.053894,0.0320129,6.0399933-0.0228882l0.5366058-0.0169983 c0.0265808-0.0029907,0.053421-0.0029907,0.0800018,0l0.0399933,0.0047913 c0.0048828,0.0016479,0.0100555,0.0023193,0.0151978,0.0020142l1.4400024,0.2027893 c0.9891968,0.1499939,1.9844055,0.2528992,2.9768066,0.3753052c7.9418793,0.9101868,15.9492798,1.1078796,23.9264069,0.5906982 c3.9808197-0.2570496,7.9434052-0.6864014,11.8878021-1.2880859c0.9844971-0.1531982,1.9700012-0.2999878,2.9499969-0.4812012 l0.5977936-0.1064148l0.1842957-0.0360107c0.0634613-0.0106506,0.1285248-0.0063171,0.1900024,0.0126953l0.2731934,0.0508118 l1.4810028,0.2886047l1.4967041,0.2507019c0.9963074,0.1777954,1.9985962,0.3099976,3,0.447998 c7.9762573,1.003418,16.0367279,1.1539307,24.0448914,0.4490051c3.3360901-0.2669983,6.5970154-0.6400146,9.7900085-1.074707 c3.1636963-0.4277039,6.3893127-0.9313049,9.5150146-1.5899963c6.1494141-1.2624207,12.1625977-3.1156311,17.9558105-5.5338135 c2.8127747-1.178833,5.5603333-2.5076294,8.2308044-3.9807129c1.3200073-0.7359924,2.6239929-1.4859924,3.8930054-2.2824097 c0.6478882-0.3876038,1.2550964-0.7936096,1.8640137-1.1975098l1.8262939-1.207489 c0.6054993-0.4046021,1.2178955-0.7969055,1.814209-1.2099915l1.7687073-1.2608948l1.7618103-1.2572937 c0.291687-0.2109985,0.5889893-0.414093,0.8753052-0.6314087l0.8552856-0.6552124 c1.1385193-0.8733521,2.2738037-1.7444763,3.4057922-2.6134033l3.2987976-2.7085876l0.8218079-0.6755066l0.8009033-0.6978149 l1.594696-1.3988953l1.5909119-1.396698c0.526886-0.4682007,1.0328064-0.9585876,1.5499878-1.4364014 c1.0227051-0.9668884,2.0658875-1.9090881,3.0667114-2.8929138l2.9809875-2.9670105 c3.9089966-4.0133972,7.651886-8.164093,11.2099915-12.4960022c3.5363464-4.3492126,6.917511-8.8588257,10.1434937-13.5289001 c3.204895-4.6933899,6.2323914-9.5799866,9.1408997-14.6351013c0.6693115-1.1777954,0.7000122-1.3085022,0.3200073-0.6976929 l-2.1575012,3.5921021c-0.5985107,0.9899902-1.1827087,1.9894104-1.7934875,2.9724121l-1.865509,2.9295044l-0.9361877,1.4632874 l-0.9725037,1.4400024l-1.9461975,2.8800049c-2.6820984,3.7799988-5.4130859,7.5368042-8.3576965,11.1335144 c-1.4349976,1.8283081-2.961792,3.5827942-4.4700012,5.3548889c-0.743103,0.8955078-1.5440063,1.7413025-2.319397,2.6099854 c-0.7857056,0.8594055-1.5516052,1.737793-2.3547058,2.5823059l-2.4216003,2.5241089 c-0.4064941,0.4180908-0.802002,0.8471985-1.217804,1.2565918l-1.25,1.2265015l-2.5032959,2.4519958l-2.5807495,2.3778687 c-6.9318542,6.3589172-14.4037781,12.1027222-22.3312988,17.1664124l-0.7421875,0.4836121 c-0.25,0.1600037-0.5112,0.3125916-0.7663879,0.4692078l-1.541687,0.9318848 c-1.0462952,0.5899963-2.0830078,1.1993103-3.1525879,1.7486877c-1.0563049,0.5755005-2.1400146,1.0956116-3.2192993,1.6288147 l-1.6386108,0.7561951c-0.5447998,0.2561951-1.0969849,0.4949036-1.6520996,0.7272949 c-2.2084961,0.9588928-4.4656982,1.803009-6.7459106,2.5762024c-2.2782898,0.7825012-4.594696,1.4455872-6.9248962,2.0513916 c-2.3299866,0.6124878-4.6870117,1.1040955-7.0516052,1.5537109l-1.7770996,0.3175049l-1.7824097,0.2821045 c-1.1943054,0.1922913-2.3540955,0.3399963-3.5354004,0.5075989c-4.7127991,0.626709-9.4814148,1.1236877-14.3072052,1.34729 c-2.4118958,0.1130981-4.8363037,0.1700134-7.2700043,0.1300049c-1.2160034-0.0035095-2.4347992-0.0599976-3.6540985-0.1026917 c-0.6100006-0.0275879-1.2200012-0.0714111-1.8300018-0.1065979l-0.9154053-0.0560913l-0.9151001-0.078186 c-2.4423065-0.184906-4.8807068-0.5068054-7.3135071-0.8800049c-1.2142029-0.2055054-2.4317017-0.4057922-3.6311951-0.6579895 l-0.4766998-0.0935974c-0.0628357-0.0161438-0.127182-0.0257568-0.1920013-0.0286865l-0.1927948,0.0340881l-1.4409943,0.2504883 c-4.8347473,0.800293-9.7084656,1.3439941-14.600708,1.6288147c-4.9281464,0.2796326-9.8679657,0.2868958-14.7969055,0.0217896 l-1.8551025-0.107605l-1.8542938-0.1451111c-1.2377014-0.0863037-2.4712067-0.2319946-3.7082062-0.3519897 c-1.2337952-0.1482849-2.4700012-0.2878113-3.7026062-0.4656982l-1.7281952-0.2506104 c-0.0605469-0.0126648-0.1222382-0.019104-0.1840973-0.0191956l-0.2220001,0.0065002l-0.9299927,0.0219116 c-2.4756012,0.0535889-5.0326996,0.0429077-7.5265045-0.1079102c-2.5086975-0.0794067-5.0110016-0.3299866-7.5187988-0.5538025 c-4.5523071-0.5102844-9.0755463-1.2529907-13.552002-2.2251892c-1.1091003-0.2478027-2.2077026-0.5328979-3.3092041-0.7976074 l-1.6484985-0.4065857l-1.6300049-0.4655151c-1.0841064-0.3164062-2.1743927-0.6068115-3.2485046-0.9450989l-3.2062988-1.0515137 c-0.9458008-0.3012085-1.959198-0.7091064-3.0677032-1.1159973c-3.8399963-1.395813-7.5791931-3.0799866-11.2733002-4.8500061 l-2.7352982-1.4030151c-0.4542999-0.2370911-0.9152985-0.4612122-1.3638-0.7090149l-1.3399963-0.7540894l-2.6773987-1.5116882 l-2.6177979-1.6122131c2.4169998,1.5180054,4.9043961,2.9067993,7.4263,4.2550049l3.6026001,1.8200073 c1.1465988,0.5140076,2.1952972,0.9841003,3.0943069,1.3872986l1.2342987,0.5389099l0.9886932,0.3785095 c0.3344879,0.1356201,0.6767578,0.2511902,1.0249939,0.3460999c-0.605011-0.3536987-1.236969-0.6591492-1.8899994-0.9135132 c4.7776642,2.0381775,9.6749573,3.7837219,14.6647034,5.2268982l1.8648987,0.5206909 c0.6228943,0.167511,1.2384033,0.3609009,1.868103,0.4992981l3.7566071,0.8945923 c2.5189972,0.5166931,5.0319977,1.0426025,7.5688934,1.4070129l1.8968964,0.2999878 c0.6338959,0.0869141,1.2700043,0.1547852,1.9049072,0.2329102l1.904007,0.2265015l0.9514008,0.112915l0.9544983,0.0799866 l3.8157043,0.3049927l3.8200073,0.1582947c1.2669983,0.0669861,2.5635071,0.0606995,3.8334961,0.0567017l1.9062958-0.0299988 l1.705307-0.0499878c0.0823212-0.0005493,0.1644897,0.0071411,0.2453003,0.0228882l0.3800049,0.0517883l0.9420929,0.1315918 c0.6277008,0.0899963,1.2559052,0.1759033,1.8860931,0.2450867l1.8881989,0.2218018l1.8916016,0.1834106 c5.4421997,0.5400085,10.9145508,0.7133789,16.3800049,0.5188904c1.4631958-0.0187073,2.9246979-0.0920105,4.3871002-0.1542969 c1.4606934-0.0921936,2.9225006-0.1755981,4.3804932-0.3099976c2.9170074-0.254303,5.8300018-0.583313,8.725708-1.0320129 c0.7259979-0.1000061,1.4472961-0.2279968,2.1699982-0.3471985l0.6717987-0.1111145 c0.0482941-0.0123596,0.0982056-0.0172729,0.147995-0.0144958l0.1472015,0.0306091l0.2922058,0.060791l0.9622955,0.1976013 c0.3616028,0.0729065,0.720993,0.1521912,1.0868073,0.2123108l2.1869049,0.3857117 c2.9234009,0.4676819,5.8619995,0.8040466,8.8157959,1.0091858c5.8824921,0.3867188,11.7855072,0.3391418,17.6609955-0.142395 c2.9260864-0.2200012,5.8387146-0.524292,8.7354126-0.8894043c2.8807983-0.3599854,5.8164978-0.7731018,8.7267151-1.3247986 c0.9599915-0.1842041,1.921814-0.3630066,2.8771973-0.5786133l1.434906-0.3132935l1.4289856-0.3442078 c0.9487-0.2200012,1.8815002-0.4919128,2.8081055-0.7392883c0.9245911-0.2561035,1.8299866-0.5430908,2.7217102-0.8086853 c0.883606-0.2948914,1.7535095-0.5732117,2.5917053-0.8687134c0.834198-0.3078003,1.651001-0.5892944,2.4248962-0.8970947 c0.7723999-0.3114929,1.5210876-0.5957031,2.2210083-0.8985901l1.9830017-0.8684998 c1.2272034-0.5806885,2.2900085-1.0816956,3.1141052-1.5321045c0.5358887-0.2825928,0.9634094-0.5075989,1.2905884-0.6947021 c0.3250122-0.1915894,0.5552979-0.334198,0.7052917-0.434906c0.7492065-0.3945007,1.5-0.7864075,2.232605-1.2123108 c0.7384949-0.4150085,1.4761963-0.8316956,2.1965942-1.2788086l1.0874023-0.6583862 c0.3599854-0.221405,0.7037048-0.4541016,1.0563965-0.6799927l2.1034851-1.3684082 c1.4161072-0.8924866,2.7745972-1.8695068,4.144989-2.8291931c0.6825867-0.48349,1.3746033-0.9544067,2.049408-1.4484863 l2.0042114-1.5100098c5.3370667-4.0311584,10.4325256-8.3726196,15.2600098-13.0018921 c9.5901489-9.2296753,18.1752625-19.4495544,25.6116028-30.4884949l1.3900146-2.0499878l1.3364868-2.082489 c0.8875122-1.3894958,1.7857971-2.769989,2.6185913-4.1900024c0.8420105-1.4125061,1.7112122-2.8099976,2.5205994-4.2338867 c0.8166809-1.4207458,1.6186829-2.8474121,2.4060059-4.2799988c1.5708618-2.8666382,3.0800171-5.7566528,4.5274963-8.6700134 c0.7241211-1.4555969,1.4310303-2.9169312,2.120697-4.3840027c0.3419495-0.7346802,0.6835938-1.4688721,1.0249023-2.2026978 l0.4631042-1.0184937c0.059845-0.1293335,0.1322327-0.2525024,0.216095-0.3677063l0.306488-0.4711914 c1.7619934-2.7307129,3.4500122-5.5079956,4.9718933-8.3526001c0.3826599-0.7095337,0.7650757-1.4183655,1.1471863-2.1264954 l0.5723877-1.0617981c0.1875-0.3554993,0.3599854-0.7185974,0.5400085-1.077301 c0.3565979-0.7194672,0.7129211-1.4382019,1.0690002-2.1562042c0.3508911-0.7205963,0.7250061-1.4288025,1.0443115-2.1625061 c0.6564026-1.4586945,1.3317871-2.9051056,1.9671021-4.3652954c0.6081848-1.4716034,1.2151184-2.9402161,1.8208008-4.4058075 l1.6635132-4.444397c0.5278931-1.4868927,1.012207-2.9855957,1.5177002-4.4721985 c0.2099915-0.602005,0.3699951-1.1414032,0.5010986-1.6020966l0.321106-1.1318054 c0.1593018-0.5836945,0.2059021-0.8144989,0.1217957-0.625c0.1420898-0.4499969,0.307312-0.9738007,0.4790039-1.5180969 c0.083313-0.2729034,0.1682129-0.5509949,0.252594-0.8276978l0.2190857-0.8282013 c1.7294006-6.3545837,3.0675659-12.8092346,4.0069885-19.3276062c0.1889954-1.5281982,0.2727051-2.3648071,0.1520081-1.6564941 c-0.0646057,0.3600006-0.1581116,0.9716949-0.2569885,1.664093c-0.1137085,0.6900024-0.2399902,1.4600067-0.3525085,2.1399994 c-1.0854797,6.8373413-2.6089172,13.5979156-4.5609131,20.2400055c-0.1954956,0.6658936-0.3171082,1.1112061-0.3377991,1.2328949 c-0.425293,1.3809052-1.2200012,3.522995-1.9375,5.6710052c-2.1719971,6.0877838-4.7263794,12.0322876-7.6478882,17.7980042 c-0.7000122,1.4515076-1.4849854,2.8569031-2.251709,4.2710876c-0.3865051,0.7056885-0.7619934,1.4161072-1.1575012,2.1173096 c-0.3981934,0.6999817-0.8027039,1.3959351-1.2135925,2.0877991c-0.8214417,1.3839417-1.6672058,2.7517395-2.5372009,4.1033936 l-0.6531982,1.0055847c-0.082489,0.1300049-0.1762085,0.2589111-0.2493896,0.3886108l-0.1983032,0.4343872l-1.0062866,2.1751099 c-2.714386,5.7843933-5.65271,11.4472961-8.8149109,16.9887085c-3.1824951,5.5267944-6.5718994,10.9478149-10.2399902,16.177002 c-7.3630981,10.5102844-15.7754517,20.2449036-25.1073914,29.0538025 c-4.7111511,4.4380188-9.6844177,8.5892334-14.8930054,12.4313049c-1.2840881,0.995697-2.6400146,1.8970032-3.9692078,2.8374023 c-0.6708069,0.4613037-1.3279114,0.9436951-2.0112915,1.3884888l-2.0541992,1.3306885l-2.0571899,1.3315125l-2.1217957,1.2828979 l-2.1625977,1.2215881l-2.2000122,1.158905l2.1488037-1.1465149c0.7056274-0.40271,1.4117432-0.8057861,2.1184082-1.2091064 l2.085907-1.2710876c0.674408-0.4412842,1.3493347-0.8830566,2.0248108-1.3252869 c0.6754761-0.4422913,1.3513794-0.8846741,2.02771-1.3272095c0.6828003-0.4334106,1.3279114-0.9230042,1.9945068-1.3825073 l1.9863892-1.4010925l0.9927979-0.7037048l0.9708862-0.7351074c5.2590027-3.9007263,10.2790222-8.1137695,15.0328979-12.616394 c9.7687988-9.2687073,18.5256042-19.5486755,26.1230469-30.6669922c0.5814209-0.8589172,1.1614075-1.7156067,1.7399902-2.5700073 c0.2933044-0.4248047,0.5750122-0.8562927,0.8486938-1.2923889l0.8299866-1.3005981l1.6530151-2.5928955l1.5769043-2.6254883 c2.1163025-3.4831848,4.0675049-7.0176086,5.9525146-10.567688c1.8771973-3.5533142,3.6573792-7.1374512,5.3405151-10.7524109 l0.6271973-1.3576965l0.3099976-0.680603l0.1319885-0.290802c0.035553-0.0906067,0.0807495-0.1771545,0.1347961-0.2580872 l0.769989-1.1878052l0.802887-1.2673035c1.0614929-1.6950684,2.0840454-3.4136658,3.0675049-5.1557922 c3.9257812-7.0013885,7.3010864-14.2974854,10.0953979-21.8222961l0.535614-1.4194031 c0.1755066-0.4747009,0.3294983-0.9575043,0.4955139-1.4364929c0.3266602-0.9600067,0.653595-1.921402,0.9808044-2.884201 l0.2449951-0.7227936l0.2221069-0.730896l0.4447021-1.4640961c0.2926941-0.9779968,0.6029968-1.9530029,0.8830872-2.9389038 c1.0799866-3.9546967,2.1116943-7.9618073,2.8980103-12.0677948c0.2134705-0.8815765,0.3730469-1.7753296,0.4779053-2.6763 c-0.0638123,0.216095-0.3781128,1.6076965-0.709198,3.2893066c-1.6838074,8.2743073-4.0501709,16.3949127-7.0747986,24.2785034 c-0.7084961,1.9600067-1.5472107,3.8625946-2.3359985,5.7792969c-0.3837891,0.9631958-0.8399963,1.8932953-1.262207,2.8368073 c-0.4318848,0.9393005-0.8528137,1.8827057-1.2923889,2.8157043c-0.460022,0.9234009-0.9193115,1.8457794-1.3779907,2.7671051 l-0.6878967,1.3813934c-0.2262878,0.4618988-0.4841919,0.9067993-0.7244873,1.3607025 c-0.9833984,1.8037109-1.9309082,3.6228027-2.9804993,5.3851013c-1.0372925,1.7677917-2.1126709,3.5081482-3.2262878,5.2210999 l-0.377594,0.5787964c-0.0569458,0.085083-0.1045837,0.1760254-0.1420898,0.2713013l-0.1382141,0.303894l-0.6355896,1.3859863 l-1.2965088,2.756897c-1.7509766,3.6627502-3.5901794,7.2727356-5.5174866,10.8299866 c-0.9634094,1.778717-1.948761,3.5444031-2.9559937,5.2969971c-0.5,0.8781128-1.019989,1.7455139-1.542511,2.6122131 l-1.5613098,2.6023865c-1.0617981,1.7219849-2.1640015,3.4191895-3.2507019,5.126709l-1.7000122,2.5161133 c-0.5740051,0.8341064-1.1177063,1.6900024-1.7185974,2.5053101c-4.6785278,6.6627502-9.7731934,13.0233459-15.2536011,19.0437927 c-5.5521545,6.1206665-11.5415649,11.8299255-17.92099,17.0827026c-1.6300049,1.3021851-3.230011,2.6534119-4.9269104,3.8922119 l-2.519989,1.8977966c-0.8511047,0.6205139-1.7236023,1.2148132-2.586792,1.8247986l-1.2999878,0.9100037 c-0.4330139,0.3049011-0.8659058,0.6105957-1.3149109,0.8934937l-2.674408,1.7362061l-1.3416138,0.8693848l-1.384613,0.8357849 l-0.693512,0.4182129l-0.7052917,0.3992004l-1.4142151,0.7972107c-7.7564392,4.1791687-16.0778809,7.2115784-24.7045898,9.002594 c-2.7461853,0.5837097-5.5231018,1.0499878-8.2521973,1.4259033c10.8492126-1.48526,21.3644714-4.8151245,31.0910034-9.8456116 c2.3970642-1.2587891,4.7275391-2.6404114,6.9822083-4.1394043l3.3570862-2.2213135l3.273407-2.3331909 c1.1017151-0.7615967,2.1520081-1.5920105,3.2156982-2.4024963c1.0567017-0.8200073,2.1376038-1.6069946,3.1582031-2.4700012 l3.0975037-2.5400085l3.0148926-2.6322937l1.1560059-0.9921875l1.1253052-1.0264893l2.2474976-2.0557861 c0.7590942-0.6745911,1.4700012-1.3999939,2.2015076-2.1033936l2.1817932-2.1234131 c0.7150879-0.7200012,1.4136047-1.4559021,2.1210022-2.1828918c0.7009888-0.7331848,1.4200134-1.4494019,2.105896-2.1965027 l2.049408-2.248291c0.6824036-0.75,1.3731079-1.4927063,2.0245972-2.2695007 c5.3253174-6.109314,10.2664185-12.5431824,14.7948608-19.2644653c4.5097656-6.711792,8.6357422-13.673584,12.3581848-20.8519897 c1.8677673-3.5785828,3.6429749-7.2012024,5.3258057-10.8677979l0.1448975-0.3154907 c0.0395203-0.0994873,0.0884094-0.1949768,0.1459961-0.2851868l0.3833923-0.5830078l0.8234863-1.2730103 c0.543457-0.8521729,1.0776978-1.710144,1.6028137-2.5737915c1.0533447-1.7252197,2.0556641-3.4789429,3.0069885-5.2612915 l1.444397-2.6600037l1.3554077-2.7059021c0.9306946-1.7899933,1.7362976-3.6399994,2.5845947-5.4689026 c0.4338989-0.9100037,0.8086853-1.8460999,1.2000122-2.7745056l1.1671143-2.7877045l1.0761108-2.8231964 c0.3493042-0.944397,0.735199-1.8751984,1.0458984-2.8330994c2.674408-7.587326,4.7627563-15.3686676,6.2467041-23.2754974 c1.4573975-7.8877869,2.2946167-15.8776245,2.5039978-23.8961945l0.0466003-1.5 C400.0076904,185.3475952,399.9945984,184.8471069,399.9971008,184.3471069z M361.8114929,98.1713028l0.9042053,1.0421982 c2.6950073,3.2881012,5.2547913,6.6900024,7.6400146,10.2313004c0.1633911,0.2460022,0.3240967,0.482399,0.4786987,0.7043991 c1.9840393,3.0251999,3.8406677,6.1436996,5.5700073,9.3554993c-0.5014648-0.8080673-1.0081482-1.6113968-1.519989-2.4100037 c-0.7763977-1.2024002-1.5720215-2.3912277-2.3868103-3.5664978c-0.0556946-0.0995026-0.1166077-0.2044983-0.1827087-0.3127975 c-3.272644-5.4462585-6.9566956-10.6344681-11.019989-15.5193024l-0.0270996-0.0988007 C361.4493103,97.7882004,361.6326904,97.9761963,361.8114929,98.1713028z M361.901001,99.9641037l-0.0784912-0.3099976 l-0.0700073-0.2721024c2.5120544,2.9584732,4.8883362,6.011795,7.1288147,9.1600037 c-1.0657959-1.3949966-2.1225891-2.7059021-3.1733093-3.9546967c-0.0733032-0.0875015-0.1467896-0.1712036-0.2200012-0.2581024 C364.315094,102.8171005,363.1185913,101.3692017,361.901001,99.9641037z M363.2497864,101.762001l-0.1480103-0.1650009 l-0.2591858-0.2884979c-0.0379028-0.0410995-0.0982971-0.1113968-0.1174011-0.1284027l-0.0650024-0.0599976l-0.5328979-0.5 l-0.1047058-0.2967987c0.4116211,0.4744644,0.8207703,0.9540329,1.227417,1.4386978H363.2497864z M361.4120789,100.1065979 c-0.2109985-0.2465973-0.4216003-0.4936981-0.6343994-0.7381973l-0.0357971-0.1718979 c-0.0299988-0.1442032-0.0650024-0.2871017-0.0958862-0.4310989c0.2090149,0.2322006,0.4200134,0.4632034,0.6270142,0.697197 l0.0599976,0.2740021l0.0665894,0.3146973L361.4120789,100.1065979z M361.0753784,98.5896988 c0.039093,0.1733017,0.0823059,0.3448029,0.1206055,0.5185013l0.0133057,0.0613022 c-0.2088013-0.2363968-0.4200134-0.469101-0.6300049-0.7029037c-0.0448914-0.2065964-0.0916138-0.4123993-0.1376953-0.6185989 c0.2145081,0.2449036,0.4214172,0.4953995,0.6338196,0.7419968L361.0753784,98.5896988z M360.7341919,101.2497025 l0.5299988,0.6353989l0.2753906,0.3309021l0.3782959,0.4690018c0.5074158,0.6242676,1.0093689,1.2575989,1.5058899,1.9000015 c-0.5079956-0.6100006-1.0180969-1.2214966-1.5400085-1.8320007l-0.3900146-0.4599991l-0.2987061-0.3389969l-0.5750122-0.6524963 l-0.3999939-1.821701c-0.0228882-0.1043015-0.0487976-0.2099991-0.071991-0.3144989 c0.0732117,0.0817032,0.145813,0.1633987,0.218811,0.2451019L360.7341919,101.2497025z M301.8692017,323.1924133 c-0.9908752,0.5870361-1.9895325,1.1604004-2.9960022,1.7200012c-0.0373535-0.151886-0.0652771-0.3059692-0.0835876-0.4613037 c-0.0064087-0.0158997-0.0083008-0.0317078-0.0141907-0.0476074 C299.8099976,324.0087891,300.8420105,323.607605,301.8692017,323.1924133z M298.1419067,325.3146057 c-0.078064,0.0431519-0.156189,0.0860596-0.2344055,0.1288147l0.2120972-0.1257935 C298.1245117,325.3125,298.134491,325.3158875,298.1419067,325.3146057z M297.170105,325.8484192 c-0.1664124,0.0899963-0.3299866,0.1841125-0.4973145,0.2731934c0.3446045-0.3131104,0.6841125-0.6325073,1.0230103-0.9526062 c-0.0050964,0.0079041-0.0067139,0.0183105-0.0140991,0.024292c-0.1535034,0.1867981-0.3139954,0.3599854-0.4793091,0.5252991 l-0.0339966,0.0715027L297.170105,325.8484192z M58.7669983,282.5499878 c-0.5681343-0.5365295-1.1314659-1.0751648-1.6899986-1.6159058c-0.0400009-0.0663147-0.0822983-0.1311951-0.1218987-0.1978149 l0.1176987-0.1972961c0.1500015,0.1478882,0.2972984,0.2994995,0.4480019,0.4466858 c0.1926003,0.1888123,0.3899994,0.3727112,0.5830002,0.5604858 C58.3233986,281.8820496,58.5444641,282.2166443,58.7669983,282.5499878z M37.5669975,226.5339966 c0.7729149,6.1128235,1.9860687,12.1618652,3.6300011,18.1000061c0.2299995,0.879303,0.4571991,1.7214966,0.678299,2.516098 s0.4799995,1.5299988,0.7024994,2.2140045c1.8916588,6.8044739,4.2997856,13.4546814,7.2033997,19.8927002l0.7361984,1.5913086 c0.5024986,1.0476074,0.9892998,2.0799866,1.4740982,2.9440918s0.9166985,1.5841064,1.2299995,2.0483093 c0.1192627,0.196991,0.2591896,0.3806763,0.4174004,0.5480042c0.085701,0.1547852,0.1748009,0.3078918,0.2611008,0.4624023 c-0.4636993-0.4750977-0.9300003-0.9494019-1.3862991-1.4273071c-1.4495964-2.6585083-2.8120651-5.3799438-4.0873985-8.1642151 c-0.2647324-0.5756531-0.5297318-1.151886-0.7949982-1.7286987c-0.2678986-0.5758972-0.4984016-1.1687012-0.75-1.7536011 l-0.7391014-1.7636108c-0.2472-0.5884094-0.4976006-1.1766052-0.7168007-1.7775879l-1.3633003-3.6000061l-1.2456017-3.6651001 c-1.6175117-4.9851532-2.9427643-10.0604401-3.9690018-15.1999969c-0.2486992-1.3616028-0.5152016-2.7086945-0.7370987-4.0536957 c-0.1977997-1.3491974-0.3944664-2.6899414-0.5900002-4.0222015c-0.0387993-0.295105-0.0616989-0.621994-0.1007996-0.973999 l-0.3648987-3.6631012c-0.1114998-1.2236023-0.1972008-2.451004-0.2678986-3.677002 c0.0600014,0.8529968,0.1278,1.7039032,0.2067986,2.5579987c0.0525436,1.094223,0.2283897,2.1790161,0.5242004,3.2337952 c0.0458031-0.0016937,0.059803-0.2432861,0.0495033-0.6386871L37.5669975,226.5339966z M227.7993927,16.0879002 l0.1277008-0.0140991l0.4710999,0.0856991C228.1981964,16.1341991,227.9990997,16.1121998,227.7993927,16.0879002z M261.0493774,25.2118988l-3.4212952-1.4843006l-3.446701-1.3299999l-0.8578033-0.3288994l-0.8683014-0.2968998 c-0.5785217-0.1966019-1.1563263-0.3929996-1.7333984-0.589201l-1.7292023-0.5853996l-1.7463989-0.5223999 c-1.3816986-0.4361-2.6479034-0.8523998-3.7709961-1.0984993c-4.0480042-1.2861538-8.1591034-2.3645592-12.3171997-3.2309999 c0.621994-0.0563335,1.2427521-0.1086998,1.8623047-0.1570997c6.7856598,1.322897,13.4460907,3.222353,19.9087982,5.6777 c0.5209045,0.1833,1.0279999,0.3964996,1.5341034,0.6065998s1.0099945,0.4190006,1.5128937,0.6273003 c1.0048981,0.4171009,2.0059052,0.8246002,2.9748077,1.2933998c0.211792,0.1082001,0.446106,0.2238998,0.7019043,0.3444004 c0.8790894,0.4288006,1.7690125,0.8390999,2.6433105,1.2835007l2.6032104,1.3738995l-1.8273926-0.9260998 c-0.7534485-0.4494038-1.5723877-0.7784634-2.4273071-0.9752998c-0.0222168,0.0389004,0.1333008,0.1556988,0.4042969,0.3183002 L261.0493774,25.2118988z M358.9212646,96.8856964c0.2529602,0.2701263,0.5046082,0.5406952,0.7547913,0.8116989 c0.0440674,0.1885986,0.0874023,0.377594,0.1300049,0.5670013c-0.2554932-0.2863007-0.5134888-0.5699997-0.7713013-0.853302 c-0.038269-0.1750946-0.0747681-0.3504944-0.1138611-0.5253983H358.9212646z M363.2712708,105.3125 c-1.052887-1.2123032-2.2211914-2.5225983-3.1081848-3.4608002l-0.3782043-0.8292999l-0.0743103-0.2916031l-0.1972046-1.0299988 l-0.2207947-1.0999985c-0.0340881-0.1651993-0.0722046-0.3292007-0.1069031-0.4941025 c0.2208862,0.2399979,0.4429932,0.4794006,0.6618042,0.7200012c0.0400085,0.0444031,0.0787964,0.0886002,0.1185913,0.1328964 c0.0253906,0.1158981,0.0541992,0.2300034,0.0794067,0.3457031l0.4309998,2.0607986l0.5293884,0.6233978l0.2644958,0.3111038 l0.3449097,0.4199982c0.4759216,0.5800018,0.9495239,1.1690292,1.4206848,1.7670975 c0.944519,1.1945343,1.8773499,2.4302063,2.7984009,3.7070007c0.2955017,0.4147034,0.5932007,0.8276978,0.8779907,1.2414017 c-1.1336365-1.4058609-2.2807922-2.7803955-3.4414368-4.1235962H363.2712708z M360.2230835,98.7377014 c-0.0776062-0.0877991-0.1545105-0.1763992-0.2322083-0.2639008c-0.0440063-0.1934967-0.0878906-0.3869019-0.1329041-0.5809021 c0.078949,0.0861359,0.1577759,0.1724396,0.2365112,0.2589035c0.0422058,0.1953964,0.0866089,0.3900986,0.1282043,0.5858994 H360.2230835z M359.8930969,97.235199c0.0466003,0.2046967,0.0899963,0.4107971,0.1351929,0.6159973 c-0.0794067-0.0871964-0.1600037-0.172699-0.2399902-0.2593994c-0.0358887-0.1528015-0.0679932-0.3037033-0.1044922-0.4567032 c-0.0147095-0.0610962-0.0314026-0.1231995-0.0461121-0.1844025c0.0849915,0.095108,0.1708984,0.1893082,0.2553101,0.2845078 H359.8930969z M359.4552917,96.7467957c0.0065918,0.0268021,0.0140076,0.0531998,0.0205078,0.0800018 c0.0458069,0.1882019,0.085907,0.3799973,0.1306152,0.5686035c-0.2490845-0.2702713-0.4990845-0.5394058-0.75-0.8074036 c-0.0133057-0.0587997-0.0249939-0.1182022-0.0382996-0.1771011c-0.0389099-0.1707001-0.0820007-0.3399963-0.1217041-0.5106964 c0.2550964,0.2806015,0.5062866,0.5641022,0.7587891,0.8466034L359.4552917,96.7467957z M348.8952942,91.028595 c-0.3552856-0.3618011-0.7149963-0.7193985-1.0737-1.0781021c0.0140991-0.0102463,0.0267334-0.0223923,0.0375061-0.0361023 c0.2469788,0.1001816,0.5054626,0.1692429,0.7695007,0.2055969c0.0890808,0.3028107,0.1779175,0.6056824,0.26651,0.9086151 L348.8952942,91.028595z M348.1363831,88.5048981l0.0108948,0.0333023l-0.5238953-0.0286026L348.1363831,88.5048981z M345.6893921,81.8399963c0.0286865,0.0243988,0.0581055,0.0478973,0.0869141,0.072403 c0.1560059,0.392601,0.3068848,0.7873993,0.4580994,1.1821976c-0.2091064-0.2657013-0.4487915-0.5457001-0.7142029-0.8340988 l-0.0415039-0.1144028c-0.0623779-0.0666046-0.1292114-0.1289139-0.2000122-0.1865005l-0.2677917-0.2360992l-0.4627075-0.4822998 l-0.5351868-0.4925003c0.2790527,0.1678848,0.5689697,0.3169479,0.8678894,0.4461975 c0.1579895,0.1279984,0.3172913,0.2542038,0.4751892,0.3824005 C345.4682007,81.6728973,345.5799866,81.7586975,345.6893921,81.8399963z M345.036499,61.159996l0.3168945,0.5600014 c-1.506897-2.1127014-3.1026917-4.1545982-4.7461853-6.1451988 C342.1404114,57.3824005,343.6168518,59.2441368,345.036499,61.159996z M286.225708,22.5100002 c-0.5924988-0.0231991-1.1708069-0.0723-1.764801-0.0699997l-0.1300049-0.0765991 C284.9682922,22.3857994,285.5914917,22.4564991,286.225708,22.5100002z M233.6627045,13.6236l1.8085022-0.0941 c5.5871277-0.2043419,11.1814423-0.0770502,16.7534943,0.3811998c0.5223999,0.0500002,1.0227966,0.0900002,1.4817047,0.1183996 c6.4326019,0.627717,12.8171539,1.6763983,19.1125946,3.1393003c3.6774597,0.8566761,7.2907715,1.9685326,10.8136902,3.3274994 c-0.0175171,0.0150394-0.0264893,0.0377483-0.0239868,0.0606995c-0.9299622-0.2768402-1.9075623-0.3561039-2.8699951-0.2327003 l-0.2431946,0.1672001c0.321167,0.2628441,0.6732788,0.4854298,1.0484924,0.6627998 c0.5248108,0.2700005,1.1972046,0.6410999,2.0177917,1.0293007l0.4899902,0.2509995l-0.5556946-0.0056 c0.9927063,0.6369991,2.4732971,1.5519009,4.0050964,2.4682007l2.2414856,1.4479008 c0.7207031,0.4710999,1.3753967,0.9685993,1.9408875,1.3929996c0.5823059,0.3974991,1.1636047,0.7924995,1.7276917,1.2192001 c0.6105957,0.4722004,1.4360962,1.0100002,2.3829956,1.6644001c0.9415894,0.6648006,2.0509949,1.3586998,3.2120056,2.1734009 c0.8240051,0.5629997,1.6564941,1.1100006,2.4599915,1.7061996l1.5563965,1.0750008 c-2.7586975-1.6237984-4.4299927-2.228199-4.1442871-1.6030006c0.3534546,0.5044823,0.7796936,0.9538002,1.2648926,1.3333015 c0.3425903,0.3120003,0.7471924,0.6613998,1.2055054,1.0413017s0.9737854,0.7844009,1.5169067,1.2435989 c2.2099915,1.7748985,5.0513916,4.0934982,8.0145874,6.5405006c1.1354065,0.9389,2.2312927,1.9263,3.3351135,2.8979988 c0.2041016,0.1809998,0.4016113,0.3628998,0.6000061,0.5444984c-6.730072-2.8557014-13.6436462-5.2579613-20.694397-7.1907005 l-1.4349976-0.3975983l-1.4424133-0.3684006l-1.4006958-0.357399c0.0100098,0.0023994-0.0242004,0.0036011-0.0499878-0.0060997 l-0.0371094-0.0159988l-0.0185852-0.0080986l-0.0065002-0.0023994l-0.083313-0.0433998 c-1.7770081-0.9279976-3.5809021-1.8178291-5.4117126-2.6694984l-1.3800049-0.6311989l-0.2775879-0.1245003l-0.0418091-0.0164986 c-0.0137329-0.0045433-0.0266418-0.0112991-0.038208-0.0200005l-2.394104-1.740799 c-0.817688-0.6166-1.6776123-1.1777992-2.5332947-1.7523003c-0.8583984-0.5699997-1.7094116-1.1599998-2.5835876-1.7217999 c-6.6713867-4.080864-13.7223206-7.505991-21.0540619-10.2274094c-5.6190033-2.044426-11.3738098-3.6942635-17.2225037-4.9375 c1.6152649-0.0883999,3.2181396-0.1521997,4.8085938-0.1913996c0.594696-0.0110998,0.9100037-0.0507002,0.815094-0.1014004 c0.2200012,0.0153999,0.5124969,0.0234003,0.7738037,0.0149002l1.0800018-0.0375996l1.1354065,0.0005999l2.406601,0.0267 c0.3605957,0.0073004,0.5588074-0.0082998,0.3923035-0.0446997c-0.2964172-0.0577068-0.598053-0.0842848-0.8999939-0.0792999 c-1.6929016-0.0233002-3.3484955-0.0447998-4.8654938,0.0282001c-0.1008911-0.0017548-0.2015533,0.0102558-0.2991943,0.0356998 c-0.4656219-0.0420694-0.9331207-0.0598936-1.4006042-0.0534c-1.7292023,0.0143995-3.4501038,0.0641661-5.1627045,0.1492996 c-0.3945007-0.0799999-0.7884064-0.1631002-1.1835938-0.2399998c0.0500031-0.0036001,0.1000061-0.0084,0.1499939-0.0118999 c3.7400055-0.2662001,7.5037994-0.3360996,11.4360962-0.2263002c0.4091034,0.0166998,0.6840057-0.0012999,0.6419067-0.0319004 c-0.2591858-0.0580997-0.5244293-0.0847254-0.7899933-0.0792999c-4.0162811-0.1262274-8.0363922-0.0470562-12.0446014,0.2371998 c-0.3833313-0.0727329-0.7669983-0.1437998-1.151001-0.2131996c0.8822632-0.0568008,1.7646332-0.1062336,2.6470947-0.1483002 c3.7723999-0.1800003,7.5467072-0.2177,11.3076019-0.0799999c3.7599945,0.1350002,7.5121002,0.3746004,11.2351074,0.8030996 c0.4350281,0.0846043,0.8800049,0.1058912,1.321106,0.0632c-0.4341125-0.16574-0.8921509-0.2602901-1.3564148-0.2799997 c-8.5659485-1.1733294-17.2236786-1.5336361-25.8574982-1.0761003c0.6039886-0.0605001,1.2045898-0.1335001,1.8125916-0.1832008 V13.6236z M231.6694031,15.3358002c-0.5966644,0.0471334-1.1926422,0.0983324-1.7879028,0.1535997 c-0.2908936-0.0577002-0.5812988-0.1168003-0.8726044-0.1724997c0.5578003-0.0588999,1.1134033-0.1099997,1.6694031-0.1623001 c0.330307,0.0579996,0.6607056,0.1202002,0.9911041,0.1809998V15.3358002z M228.7243958,14.8289003 c0.4524994,0.0724001,0.9049072,0.1423998,1.357605,0.2200003c-0.3562927,0.0358-0.713501,0.0690002-1.0691071,0.1078997 c-0.1799927,0.0193996-0.3587036,0.0421-0.5382996,0.0622997c-0.4342957-0.0810003-0.8683014-0.1629-1.3034058-0.2393999 c0.5174103-0.0544996,1.0353088-0.1032,1.5532074-0.151V14.8289003z M226.4308014,15.8018007l0.1705933,0.0311003 c-0.1600037,0.0186996-0.3186951,0.04-0.4781036,0.059c-0.3332977-0.0367002-0.6660004-0.0712004-0.9987946-0.1055002 c0.2071991-0.0276003,0.4167938-0.059,0.6233978-0.0857c0.2279053,0.0339994,0.4542999,0.065299,0.6829071,0.1008997V15.8018007z M223.6134949,15.4007006c0.532608,0.0699339,1.0671692,0.1437674,1.6036987,0.2215004 c-0.2362976,0.0320997-0.4725952,0.0657997-0.7088928,0.0991001c-0.6450653-0.0636005-1.2891998-0.1225004-1.9324036-0.1766996 c0.3459015-0.0480013,0.6916046-0.0982018,1.0375977-0.1441011V15.4007006z M99.7419968,55.2571983l0.0100021-0.0069008 l-0.1162033,0.8181l-0.0660019,0.0266991L99.7419968,55.2571983z M93.6667938,59.6633987 c1.3337326-1.0311966,2.7016373-2.0445328,4.1036987-3.0400009c-0.0054932,0.0747986-0.0021362,0.1499863,0.0100021,0.223999 l0.1035995,0.2271004c0.5116043-0.0837326,0.9949112-0.2914848,1.4076996-0.6050987 c-0.1023026,0.0788994-0.2062988,0.1565018-0.308197,0.2359009c-0.5238037,0.3694-0.9899979,0.7310982-1.3785019,1.0624008 c-1.0523987,0.6580009-2.0759964,1.362999-3.1163025,2.0480003c-1.0173035,0.7036018-2.0447998,1.3981018-3.0559006,2.1178017 C92.1658936,61.1669006,92.9105301,60.4101982,93.6667938,59.6633987z M90.3767929,63.9290009 c0.462532-0.3640709,0.9341431-0.727066,1.4148026-1.0890007l0.7120972-0.528801 c-0.8536987,0.8028984-1.7032013,1.592701-2.5326996,2.3889961c-0.441597,0.4256973-0.8725967,0.8544006-1.3080978,1.2815018 c0.5081024-0.6155014,1.0170975-1.2300034,1.5348969-1.8351974c0.0631104-0.0694656,0.1226807-0.1420517,0.1785049-0.2174988 H90.3767929z M88.3548965,65.283699c0.0563965-0.063797,0.1135025-0.1268997,0.1699982-0.1904984 c0.3702698-0.3014679,0.7435989-0.6014709,1.1200027-0.9000015c-0.4888,0.4345398-0.9807358,0.8712006-1.4757996,1.3099976 c0.0639038-0.0739975,0.1260986-0.1472931,0.1853027-0.2194977H88.3548965z M87.486496,66.3082962 c0.5948029-0.5111008,1.2071991-1.0193024,1.8300018-1.5261002c-1.0333328,1.099205-2.0490723,2.2192001-3.0472031,3.3600006 c-0.3312683,0.2775345-0.6612625,0.5561981-0.9899979,0.8359985c0.724205-0.8973312,1.4597702-1.7873001,2.2067032-2.669899 H87.486496z M30.2630997,115.6449966c-0.1613007,0.7769012-0.2991009,1.561203-0.4388008,2.3399963l-0.1089001,0.1780014 C29.8869991,117.322197,30.0655994,116.4815979,30.2630997,115.6449966z M16.7099991,200.5438995 c0.2322998,1.3513031,0.4783993,2.7006989,0.7492008,4.0460968c0.0333328,0.8727264,0.0733337,1.7445374,0.1200008,2.6154022 c-0.3127003-1.4537048-0.5967007-2.9100037-0.8635998-4.3679962 C16.7082005,202.0740204,16.7063332,201.3095093,16.7099991,200.5438995z M17.5799999,188.0368958 c0.0436993,0.0083008,0.1081009-0.2489929,0.1809998-0.6770935c-0.2640667,3.4292603-0.4037323,6.8357697-0.4190006,10.2194977 c-0.0092678,1.8562012,0.0136662,3.7064209,0.0688,5.550705c-0.126667-0.5990753-0.2528-1.2004852-0.3784008-1.8041992 c-0.1054001-0.563858-0.2114334-1.1305389-0.3181-1.6999969c0.0300007-2.9900055,0.1455994-5.9559021,0.3610001-8.8694 l0.0972996-1.0713043c0.2399998-2.6809998,0.5457993-5.3652954,0.9113998-8.0332947 c-0.1138992,0.9306946-0.2271996,1.8600006-0.3260002,2.7951965 C17.5729446,185.634079,17.5132847,186.8373413,17.5799999,188.0368958z M16.7535992,205.1436005 c0.2889004,1.4575958,0.6056004,2.9109039,0.9389,4.3618011l0.0666008,1c0.0030994,0.0482941,0.007,0.094696,0.0100002,0.1425934 c-0.3493996-1.432724-0.6778316-2.8822021-0.9853001-4.3484039c-0.012001-0.3847961-0.0214005-0.7702942-0.0305004-1.1559906 H16.7535992z M16.9561996,210.2113953c-0.058466-1.0395966-0.1071663-2.0815735-0.1460991-3.1259003 c0.3176003,1.4620667,0.6581669,2.9234009,1.0216999,4.3840027c0.0459995,0.5500031,0.0972004,1.0792999,0.1487007,1.5800018 c0.0351009,0.6194,0.0807991,1.2389069,0.1238995,1.8583069c-0.4076672-1.5596008-0.7904987-3.1250763-1.1485004-4.6964111 H16.9561996z M26.5580997,143.1839905c-0.9775009,2.497406-1.9500008,5.0200043-2.8955002,7.5966949 c-1.9953575,5.2932587-3.6412907,10.711731-4.9272003,16.2205048c-0.1509991,0.6799927-0.2786999,1.3672028-0.4113998,2.0514069 c-0.1350002,0.6891022-0.2408009,1.3339996-0.3621998,2.0019989c-0.2280998,1.3265991-0.4463997,2.652298-0.6459999,3.9792023 c-0.4009342,2.6533356-0.7413673,5.3081665-1.0212994,7.9644928c-0.4175997,4.0220947-0.6882,8.0608063-0.7933998,12.0825958 c-0.8030519-6.2344666-1.2053785-12.5140228-1.2045002-18.8000031c0.0100002-0.8233948-0.0179996-1.2608032-0.0719995-1.1295013 c0.0232-0.3047943,0.0416002-0.7091064,0.0425997-1.0708008c-0.0010996-1.9369049,0.0900002-4.1076965,0.2573996-6.3899994 c0.0261002-0.4985046,0.0208998-0.772995-0.0241003-0.5433044c-0.0713778,0.4109344-0.1175966,0.8258362-0.1384001,1.2424011 L14.2493,170.131073l-0.0628996,1.7120972c-0.0167999,0.5639038-0.0445004,1.1199951-0.0479002,1.6665039l-0.0043001,1.6089935 c-0.0055227,0.1387329,0.0028858,0.2776489,0.0250998,0.4147034c-0.0237999,0.2330933-0.0469999,0.5343018-0.0640001,0.8690033 c-0.0100002,0.3347931-0.0150995,0.7030945-0.0132999,1.0700073c-0.0473909,6.7254944,0.4131155,13.4449615,1.3775997,20.1011047 c-0.0039997,0.452301-0.0087996,0.9048004-0.0085001,1.3565063c0,0.0500031,0.0007,0.1009979,0.0007,0.1517029 c-1.5667677-9.5370636-2.0727186-19.218277-1.5086002-28.8666992c0.0514193-0.2932129,0.0565825-0.5926819,0.0152998-0.8874969 c-0.0809412,0.3579254-0.1254349,0.723114-0.1328001,1.0899963c-0.3430758,5.4345856-0.3253355,10.8859558,0.0530996,16.3181915 c0.3149004,4.5075073,0.8357,8.9445953,1.5774002,13.3473053c0.0052004,0.9672546,0.0178661,1.9342041,0.0380001,2.9008026 c-0.1117334-0.6371918-0.2190332-1.2751312-0.3219004-1.9138031c-0.8408976-5.2223663-1.3945284-10.4869537-1.6583996-15.7700043 c-0.5516491-10.5128174,0.1981001-21.0535126,2.2321997-31.3824005c0.1673374-0.588028,0.2646761-1.1937561,0.29-1.8045959 c-0.2348919,0.5952759-0.4072523,1.2133636-0.5143003,1.8442993c-2.5039749,11.7238007-3.3428612,23.7420197-2.4919004,35.6999969 c-0.1021996-0.8350067-0.1548996-1.6699982-0.2341003-2.5113983l-0.0852003-1.2516937l-0.0572996-1.2536011 c-0.3096323-7.743866,0.071579-15.4999237,1.1391001-23.1761017c0.0937004-0.7189941,0.2024002-1.404007,0.2938004-2.0326996 l0.0024004-0.0167999c1.3949432-8.850708,3.9006863-17.4901276,7.4578991-25.7136993 c2.0867996-4.7637939,3.9391003-9.6833038,6.0615005-14.4599991c0.0124035,0.0142136,0.0315857,0.0205078,0.0499992,0.0164032 c-0.4595604,1.2352829-0.7365074,2.530983-0.8220997,3.846199l0.1243,0.3177032 c0.9070473-1.3452759,1.7102413-2.7577362,2.4025993-4.2250977l0.3700008-0.6699982l-0.1240005,0.7376022 c0.9013004-1.3609009,2.1254005-3.4244003,3.4999981-5.4476013c1.2866974-1.9261017,2.6805916-3.778389,4.1750984-5.5481033 c0.6054001-0.7630005,1.2227325-1.5172348,1.8520012-2.2627029c1.3819008-1.6174011,3.4959984-4.2332001,6.0556984-7.2679977 c0.8975983-1.0690002,1.8156013-2.1383972,2.7414017-3.1820984c0.5794983-0.6621017,1.1379013-1.3339996,1.7332993-1.9899979 c-1.0558319,1.3069229-2.0322571,2.6760483-2.9239998,4.0999985c-0.5531998,0.9300003-0.6640015,1.3623962-0.2624016,1.1666031 c0.7063141-0.4837799,1.3569412-1.04422,1.9399986-1.6710968c0.9309998-0.9000015,2.1077995-2.1100006,3.4962006-3.5231018 c1.3917007-1.4082031,2.9785995-3.0271988,4.7237015-4.731102c0.1399994-0.1383972,0.2873993-0.2809982,0.4300003-0.4206009 l-0.7415009,1.4710007l-0.8251991,1.6968002c-0.021801,0.0457993-0.0292015,0.0599976-0.0321007,0.0650024h0.0035019 l-0.0054016,0.0142975c0,0-0.0046997,0.0081024-0.0014992,0.0031967c0.0111427-0.017395,0.0242615-0.033432,0.0391006-0.0477982 l-0.2643013,0.3337021l-1.1823921,1.4826965c-0.787735,0.9898605-1.5767059,1.9814606-2.3669014,2.9748001 c-0.7663994,1.0194016-1.5326004,2.0469971-2.2868004,3.0827026c-1.4889984,2.0858002-2.9518013,4.2008972-4.3423996,6.3716965 l-1.1739006,1.8320999l-1.1293983,1.842598l-0.5620003,0.9178009l-0.5418015,0.9252014l-1.078701,1.8438034 c-1.3970985,2.4709015-2.7523994,4.9329987-4.0112,7.4153976c-1.280899,2.4732971-2.4678993,4.9636993-3.6348,7.4477997 c-1.1399994,2.4938049-2.2574005,4.9837036-3.3074989,7.4900055c-1.0670986,2.500885-2.0711002,5.0151978-3.0667992,7.5348969 L26.5580997,143.1839905z M29.9442997,218.9900055v0.1900024c-0.2933006-0.7299957-0.5571003-1.4667969-0.8376999-2.2044983 C29.3864994,217.6499939,29.6578007,218.3220062,29.9442997,218.9900055z M42.9442978,286.3594055 c-0.0194016-0.0249023-0.0138016-0.0180054,0.0056,0.0065002c-0.0233994-0.0267944-0.0052986-0.006897-0.0052986-0.006897 L42.9442978,286.3594055z M53.2031975,278.8683167l-1.5726013-1.6442871l-0.8883018-0.9692993l-0.4399986-0.4837036 l-0.3830986-0.5304871c-0.5089989-0.7135925-1.0348015-1.4155884-1.5299988-2.1387024 c-0.4940987-0.7243958-0.9977989-1.4424133-1.4846001-2.1719055l-1.4375-2.2047119 c-1.8817368-2.9629822-3.6301346-6.0106506-5.2452011-9.1430054c-0.2789993-0.5383911-0.5410995-1.0560913-0.7868996-1.5357056 c-3.6175842-7.3315125-6.3797417-15.0548401-8.2320004-23.0177002c-1.0627003-4.6083984-1.8936996-9.2841034-2.5086002-13.9945984 c0.0178585,0.0046997,0.0368881,0.000412,0.0510006-0.0115051c0.1818638,0.7439728,0.4080009,1.4764099,0.6772003,2.1934052 c0.1381607,0.4107056,0.3307781,0.8010101,0.5727005,1.1605072l0.2667007,0.1826935 c0.0957394-1.4701385,0.0678082-2.9457245-0.0834999-4.4111938l-0.0312004-0.695694l0.2768002,0.6286926 c0.0181007-0.3717957,0.0289993-0.7875061,0.0342999-1.2369995l0.0293007-1.4438019 c0.0121002-1.0173035,0.0079002-2.1307983,0.0394001-3.2653046c0.0100002-0.5661011,0.0212002-1.1372986,0.0317993-1.7037048 c0.0149994-0.5659943,0.0445995-1.127594,0.0678997-1.6732025c0.0277004-0.5449982,0.0547009-1.0755005,0.0804996-1.5820007 c0.0331993-0.5057068,0.0799999-0.9868927,0.1229-1.4329071c0.0571003-0.8930969,0.0909996-1.7841034,0.1720009-2.6748962 c0.1686993-1.9416046,0.2866001-5.008606,0.4857006-8.5926971c0.0790997-1.2621002,0.1590996-2.5238037,0.2586994-3.7832947 c0.0580997-0.7957001,0.1158009-1.5858002,0.1742992-2.3867035c-0.0093994,1.0099945-0.0041008,1.9069061,0.0160007,2.6717987 c0.0323009,0.7655945,0.0849018,1.3999939,0.1440983,1.884903c0.1206017,0.9700012,0.2863998,1.3430023,0.4924011,0.9842987 c0.2734833-0.7240906,0.4530106-1.4802551,0.5341988-2.25c0.084301-0.5776062,0.2052002-1.2447968,0.3075981-1.9918976 c0.0572014-0.3937988,0.1116982-0.8110962,0.1699982-1.2467957c0.0395966,1.177475,0.0916328,2.3565674,0.1561012,3.5372925 c0.0709,1.2541046,0.1677017,2.5099945,0.25,3.7700043c0.093399,1.2595062,0.2276001,2.5200043,0.3400002,3.7866058 c0.1176987,1.2657928,0.2900009,2.5319977,0.4323997,3.8054962l0.0264015,0.2241058v-0.0034027l0.0004997,0.0088959 l0.0010986,0.0090942l-0.0008011-0.0036926c0.0023918,0.0148468,0.0031967,0.029892,0.0023994,0.0449066l-0.0307999,0.7129059 l-0.0639,1.936203c-0.0700798,4.9170227,0.1262741,9.8342285,0.5881996,14.7299957l0.1847,1.8204956l0.2282982,1.8115997 c0.1627998,1.205307,0.2900009,2.4131927,0.4836998,3.6100006c0.1967316,1.1959991,0.3934021,2.3907013,0.5900002,3.5841064 c0.200901,1.1923065,0.4646988,2.371994,0.6948013,3.5559998c0.9648933,4.7131042,2.1894264,9.3692932,3.6679993,13.9472961 c0.3429985,1.1499939,0.7510986,2.2781067,1.1483994,3.4100037c0.4020996,1.1300049,0.7780991,2.2684021,1.2299995,3.3800049 c0.4370003,1.1161804,0.8742294,2.2328491,1.3116989,3.3500061l1.4211998,3.307312 c1.1389008,2.5758972,2.3193016,4.9978943,3.5321007,7.3099976c-0.4370003-0.6000061-0.8690987-1.202301-1.3056984-1.7973022 c-0.4238014-0.6131897-0.6753998-0.9200134-0.6511002-0.7922974c-0.1407013-0.2384033-0.3375015-0.5474854-0.5261002-0.8153076 c-1.0189018-1.4277954-2.0864983-3.0805054-3.1576004-4.8551941c-0.2421989-0.381897-0.3916016-0.5809937-0.3070984-0.3864136 c0.158535,0.3431091,0.3400459,0.6751404,0.5433006,0.9938049l0.8288002,1.3460083 c0.286068,0.4373474,0.5691986,0.8702087,0.8493996,1.2986145c0.5527,0.8591003,1.1265984,1.6719971,1.678299,2.4462891 c0.0681877,0.1057739,0.1479111,0.2036438,0.2377014,0.2918091c0.2881813,0.510437,0.6063728,1.0033264,0.9528999,1.4761047 l0.9482994,1.3590088l0.7727013,1.0523071c0.3329964,0.6124268,0.6683998,1.2171936,1.0061989,1.8143921l-0.0186005-0.019989 c-0.1844826-0.1807251-0.3564491-0.3738098-0.5147018-0.5779114c-0.6862984-0.9284973-1.4263992-1.8786926-2.1007996-2.8544922 l-1.0359001-1.4645081l-1.0056-1.5014038c-0.6845016-0.9978943-1.3132019-2.0437927-1.9771004-3.0840149 c-0.264801-0.4400024-0.4584007-0.7244873-0.4571991-0.6618958c0.1227112,0.3094177,0.2795486,0.6041565,0.4676018,0.8788147 c1.4847984,2.4281006,3.0573006,4.7424011,4.6699982,6.9830017l1.2305984,1.6581116 c0.1060982,0.1365051,0.1762009,0.2492981,0.2737999,0.3528137l0.3227997,0.3435974l0.4399986,0.4670105 c0.1874008,0.3276062,0.3754349,0.6533508,0.5640984,0.9772949c-0.3362999-0.3572083-0.6758995-0.7116089-1.0085983-1.0718994 l-0.4900017-0.5304871c-0.1428986-0.1539917-0.2608986-0.343811-0.4183998-0.5499878l-0.8853989-1.2080078 c-4.6855202-6.4411621-8.6886978-13.3519592-11.9449883-20.6210175c-0.1834373-0.5238037-0.4341354-1.0215759-0.7458-1.4808044 c0.1311226,0.5658875,0.3267021,1.1148682,0.582901,1.6362c1.0647011,2.4774933,2.1870995,4.937912,3.4381981,7.3378143 c1.2374001,2.406311,2.5522003,4.7786865,3.9700012,7.0924988c0.6904984,1.168396,1.4399986,2.3008118,2.1678009,3.4476929 c0.7627983,1.1236877,1.5027008,2.264801,2.3014984,3.3652954l0.5900002,0.8319092l0.2915993,0.4107971 c0.1002159,0.1312561,0.2075768,0.2568665,0.3216019,0.3763123l1.3689003,1.5151062 c0.7333298,0.799408,1.4739304,1.5927429,2.2218018,2.3800049c0.023201,0.0374146,0.0460014,0.0758972,0.0691986,0.1133118 c-0.3785019-0.3681335-0.7570992-0.7347412-1.1355019-1.1082458L53.2031975,278.8683167z M54.8596992,279.3862305 c-0.0822678-0.0843201-0.1643677-0.1687012-0.2462997-0.2531128c-0.1987-0.3384094-0.3944016-0.6789856-0.5900002-1.0194092 c0.3153343,0.3213806,0.6310349,0.6417542,0.9471016,0.9610901L54.8596992,279.3862305z M55.0270996,278.9143372 c-0.4364014-0.4370117-0.8704338-0.8762817-1.3021011-1.3179016c-0.2066689-0.3629456-0.4114342-0.7273254-0.6142998-1.0932007 c0.4743996,0.5004883,0.9538002,0.9945068,1.4336014,1.4880981c0.1661339,0.2911987,0.333065,0.5819092,0.5008011,0.8721008 L55.0270996,278.9143372z M55.1306992,278.1059265c-0.4029961-0.7139893-0.7999992-1.4334106-1.1910019-2.1582031 c0.4333344,0.7658081,0.875103,1.5297241,1.3252983,2.2918091c-0.0440941-0.0450439-0.0895958-0.0895386-0.1339951-0.1340332 L55.1306992,278.1059265z M55.3554993,277.988739l-0.5129013-0.8847961 c-0.2753983-0.4910889-0.5351982-0.9927979-0.8044014-1.4916992c-0.5289993-1.0028076-1.0816994-2.0025024-1.5974007-3.0310974 l-1.5207977-3.1293335c-0.3778992-0.7514038-0.6935005-1.5318909-1.0327988-2.2886047 c1.7538033,3.5533142,3.6381302,6.9889221,5.6529999,10.3067932L55.3554993,277.988739z M57.3602982,281.8987427 c-0.1854019-0.3041382-0.3693314-0.6095276-0.5517998-0.9161987l0.0349007-0.0585022 c0.0349007,0.033905,0.0699997,0.0675049,0.1049995,0.1015015c0.2494011,0.4036865,0.4972992,0.8078003,0.7515984,1.2106934 c-0.1137962-0.1125488-0.2255974-0.2262268-0.3393974-0.3384399L57.3602982,281.8987427z M58.1878967,282.7087402 l-0.7827988-1.241394c0.5814629,0.5603943,1.165966,1.1164246,1.7535019,1.6680908 c0.1853981,0.2755127,0.3678017,0.5534058,0.5550003,0.8275146c0.1176987,0.1856079,0.2382011,0.3693848,0.3576012,0.5539856 c-0.6326027-0.5988159-1.2602692-1.2019653-1.8829994-1.8094482L58.1878967,282.7087402z M224.1291046,353.4200134 c0.0071564-0.0159302,0.0131989-0.0323486,0.0180969-0.0491028c0.0702515-0.0397949,0.1381683-0.0836182,0.2033997-0.1311951 l0.0133057,0.237915C224.2857971,353.4581909,224.2071991,353.4400024,224.1291046,353.4200134z M224.3648987,353.4778137 l-0.0133057-0.2387085c0.0384064-0.0281067,0.0713959-0.0585938,0.1060028-0.0884094l0.0399933-0.0155945l0.0213013,0.3800049 c-0.0514832-0.0119934-0.10289-0.0241089-0.1539917-0.0370178V353.4778137z M288.1101074,348.3926086l1.1542053-1.1384888 l0.1340942-0.0281982L288.1101074,348.3926086z M328.0675964,321.2636108l-1.1523132,1.1659851 c-3.6228027,3.519989-7.3717041,6.9153137-11.3153076,10.1047974c-0.3638916,0.2900085-0.7090149,0.5708008-1.0227966,0.833313 c-4.5935059,3.6334229-9.4042969,6.9833374-14.4056091,10.0310974c-2.9214783,1.7709351-5.9585266,3.343811-9.0906067,4.7080994 c-0.0002136-0.0179443-0.0068054-0.0352478-0.0185852-0.0487976c0.7738647-0.4304504,1.4447632-1.0242004,1.966095-1.7399902 l0.0412903-0.2818909c-0.3771973,0.0201111-0.75,0.0904236-1.1086121,0.2091064 c-0.5155029,0.1448975-1.1812134,0.3359985-1.9565125,0.6026917c-0.1589966,0.0477905-0.3157043,0.1008911-0.4764099,0.1444092 c0.1199951-0.1177063,0.2359924-0.2445984,0.3536072-0.3660889c-1.0624084,0.1716003-2.5834045,0.541687-4.1651917,0.8752136 c-0.7875061,0.1756897-1.6004944,0.3161926-2.362915,0.4623108c-0.7679138,0.1312866-1.5,0.230011-2.1340942,0.3039856 c-0.6281128,0.1011047-1.2600098,0.1856079-1.8869019,0.2788086c-0.6860046,0.0921936-1.5708923,0.2164001-2.5860901,0.408905 c-0.5465088,0.0892029-1.1339111,0.1953125-1.7515869,0.3077087l0.5664978-0.3399963l0.1079102-0.0650024 c0.03479-0.020813,0.0840149-0.0506897,0.0694885-0.040802l0.000885-0.0021057 c-0.0014038-0.005188,0.0056152-0.0078125,0.0080872-0.0119019c0.0036621-0.0028381,0.0078125-0.0050354,0.012207-0.0065002 l0.0122986-0.0038147l0.0054932-0.0044861c0.0111389-0.0044861,0.0226135-0.0080872,0.0343018-0.0108032l0.0535889-0.0158997 l0.8568115-0.2586975l1.7120056-0.5350952c1.1408081-0.3645325,2.2796021-0.7460327,3.4164124-1.1445007 c2.2737427-0.7964172,4.5381165-1.6601868,6.7930908-2.5913086c3.5372009-1.4545898,6.9049072-3.0625,10.1853027-4.7200012 c1.626709-0.8554077,3.2481995-1.6929016,4.8218994-2.6000061c1.5939026-0.8717041,3.1358032-1.8157959,4.6864929-2.7383118 c3.0664062-1.9010925,6.092804-3.8468933,9.0361023-5.9581909l1.1124878-0.7817993l1.0976868-0.8069153l1.957489-1.4450989 c-0.2142029,0.230011-0.3016968,0.3577881-0.2279968,0.3406067c-0.1531067,0.1286926-0.3532104,0.3023987-0.5245972,0.4656067 c-0.8999939,0.8937073-1.9379883,1.8666077-3.039093,2.8843079c-0.2413025,0.2200012-0.3605957,0.3554993-0.2267151,0.2778931 c0.2335205-0.1429138,0.4495239-0.3126526,0.6435852-0.5057983c1.1221008-1.0469055,2.2229919-2.0664062,3.1939087-3.040802 c0.067627-0.0623169,0.1255188-0.1344299,0.171814-0.2138977c0.3338318-0.2610779,0.6523438-0.5411377,0.95401-0.8388062 c0.1716003-0.1617126,0.3399963-0.3254089,0.5100098-0.4876099c0.3218079-0.2493896,0.6422119-0.4974976,0.96521-0.7475891 c0.3631897-0.2833862,0.7319946-0.5611877,1.0929871-0.8500061l0.395813-0.321106 c-1.9685974,1.9950867-4.0109863,3.9500122-6.1993103,5.9028015c-0.2792969,0.243988-0.4472046,0.4292908-0.3988037,0.425293 c0.2089233-0.1196289,0.401062-0.266449,0.5714111-0.436615c2.4938965-2.2099915,4.8255005-4.4536133,7.0541077-6.7370911 l1.603302-1.3565979l0.8395081-0.7453918c-5.5124817,5.7409363-11.427124,11.081665-17.6990051,15.9815979 c-0.5383911,0.3966064-0.9483032,0.7507019-0.9007874,0.788208c0.3902588-0.1582031,0.7521362-0.3789062,1.0714111-0.6535034 c6.2944336-4.6468506,12.2391052-9.7496948,17.7860107-15.267395c-0.3583679,0.416748-0.7333679,0.8145447-1.1107788,1.2177429 V321.2636108z M334.310791,312.0864258c0.8751526-1.0273132,1.7406006-2.0647278,2.596405-3.1122131 c0.0362854-0.0375977,0.0723877-0.0757141,0.1087036-0.1131897c0.3832092-0.4028931,0.7705078-0.7999878,1.1469116-1.2055969 l0.2771912-0.3049927c-0.9474182,1.2102051-1.9225159,2.4207764-2.925293,3.6317139 c-0.3995972,0.3694153-0.8009033,0.7376099-1.2039185,1.1045532V312.0864258z M340.4631958,305.9971313 c-0.0846863,0.1065979-0.1712036,0.2116089-0.2561035,0.3181152c-0.5235901,0.5447998-1.046814,1.089386-1.5645142,1.6282043 c-0.6845093,0.6972046-1.3829956,1.3713989-2.0700073,2.0499878c-0.0924988,0.0835876-0.1906128,0.1744995-0.2915955,0.269989 c1.1278687-1.3862,2.2460022-2.79599,3.3544006-4.2294006l0.7099915-0.7839966l0.1283875-0.1531982l0.1626892-0.1364136 l0.5994873-0.473999c0.2237854-0.177002,0.4419861-0.3591003,0.6643982-0.5372009 c-0.4762268,0.684967-0.9520264,1.3707886-1.4371338,2.0481873V305.9971313z M358.9289856,247.4826355 c-0.0166016-0.8000031-0.03479-1.5976257-0.0545959-2.3928986c0.0230103-0.0628052,0.0469055-0.1251984,0.0700073-0.1880035 c0.1811523,0.2587585,0.4368286,0.456192,0.7330017,0.5659943l0.0176086,0.002594 c-0.2500305,0.673111-0.5053406,1.3439636-0.7660217,2.0125732V247.4826355z M360.1030884,244.3462372l-0.3490906-0.2362061 l0.0018921-0.0039062l0.3572998,0.212204L360.1030884,244.3462372z M371.941803,177.0977478 c-0.0480957-0.6593933-0.099884-1.3205261-0.1553955-1.9833984c-0.1152039-1.1392059-0.1965027-2.2630005-0.313385-3.3699951 c-0.0054016-0.1230011-0.0150146-0.2579041-0.0306091-0.4033966c-0.0661621-0.7015381-0.1323853-1.4048767-0.1987915-2.1100006 c0.0141907,0.0229034,0.028595,0.047699,0.0426941,0.069397l0.0075073,0.0599976 c0.0048828,0.4620209,0.1217651,0.9159698,0.3406067,1.3229065c0.0441895-0.0034943,0.0726929-0.1065063,0.0863953-0.2731934 c0.1014099,0.6437073,0.221405,1.281601,0.3124084,1.9216003c0.0889893,0.6406097,0.1777344,1.2789154,0.2662048,1.9149017 c0.0845032,0.637207,0.1943054,1.2700043,0.2612915,1.9069977c0.072937,0.636795,0.1457214,1.2727051,0.2184143,1.9076996 c0.0523987,0.7610016,0.1380005,1.4589996,0.200592,2.0628052c-0.0047913,0.8123932,0.0031128,1.6244965,0.0029907,2.4375 c-0.3041077-1.8248596-0.651062-3.6460419-1.0409241-5.463562V177.0977478z M366.8283997,107.9700012l-0.5958862-0.8785019 c-0.6469727-0.9487-1.3777771-1.8374023-2.1836853-2.6554031c-0.0990295-0.103714-0.2145691-0.1903229-0.3418884-0.2563019 c-0.487793-0.6091995-0.9811096-1.2148361-1.480011-1.8169022l-0.3727112-0.4525986l-0.2417908-0.2799988l-0.4808044-0.5599976 l-0.2181091-1.0477982c0.218811,0.2465973,0.4346924,0.4934006,0.6513977,0.7399979l0.0235901,0.1011963l0.6871948,0.7726974 c0.3877869,0.465538,0.7759705,0.9316025,1.1646118,1.398201c0.7703857,0.9395981,1.5326843,1.890831,2.2868042,2.8536987 c1.5052185,1.9286041,2.9693909,3.9114304,4.3924866,5.9485016c2.905365,4.1494751,5.5545959,8.4725266,7.9328918,12.9449997 l1.1618042,2.2013016c0.3757019,0.7328033,0.7236938,1.4736938,1.0812988,2.204895 c0.0430908,0.1016998,0.0916138,0.2106934,0.1426086,0.322998c-0.0489502-0.0326385-0.1004639-0.0612946-0.1539917-0.0856934 l-0.269989-0.028595c-0.0090027,0.0825348-0.0101624,0.1657562-0.0033875,0.2485046 c-0.1893921-0.3600006-0.3800049-0.721405-0.5686035-1.0794983c-0.2210083-0.4131927-0.4343872-0.8292007-0.6615906-1.2366028 c-0.2310791-0.4054642-0.461792-0.810173-0.6921997-1.2141037l-1.3829041-2.4116974 c-0.4743958-0.7949982-0.9491882-1.5879974-1.4400024-2.3700027c-0.5487061-0.9546967-1.0960083-1.8075027-1.586792-2.5294037 C371.5728149,115.098999,369.2673035,111.493103,366.8283997,107.9700012z" fill="#14242f" data-color-group="0"/></g></g></svg>