<svg id="Layer_1" xmlns="http://www.w3.org/2000/svg" width="100%" height="100%" viewBox="0 0 400 278" preserveAspectRatio="none"><title>Brushed</title><g><path d="M399.25648,164.986c-.20328-1.54342-3.52959,3.08882-3.91682,3.34158,3.92293-2.56056-7.8694-16.15781-9.39661-17.61622a58.666,58.666,0,0,0-21.28826-12.67547c-13.22436-4.62993-30.16939-2.91392-39.31432,7.89625-8.35694,9.87869-11.02455,26.3821-15.73074,38.11145-7.697,19.18353-15.56295,38.0424-25.53121,56.17686-2.09324-5.72417-2.17311-11.70994-2.4208-17.71272a9.66686,9.66686,0,0,1,2.5866,3.52415c0-2.422-2.20888-34.01163-3.14622-33.39323-.70487.465,1.27172,5.0062-.71729,4.85316-1.88963-.14561,3.65855-56.89177,3.87229-60.0593,1.68953-25.03821-16.01113-53.37611-44.03147-55.01416-34.80387-2.03463-40.03338,37.07258-44.69759,63.62833-2.88645,16.43408-5.18645,32.9863-7.65955,49.48622-1.54724,10.32274-.65031,34.92136-8.9708,42.57083-2.90317-18.82541-11.03677-34.29523-10.70247-53.94024.2135-12.546.47358-25.08967.60635-37.63715.11393-10.7669-5.96179-77.25649,3.6617-81.07818a47.50564,47.50564,0,0,1,.82214,17.16207c7.85991-15.22208,5.67317-45.79722.18277-61.6243C167.28035,3.15992,144.34256-.00882,127.8665.55047c-34.18033,1.16026-40.88,42.52735-43.65812,69.4763-5.88483,57.08466-6.49422,114.60841-12.53216,171.73254-6.827-4.19374-8.58743-19.31416-9.83477-26.35675-2.21993-12.53391-1.14438-27.7742-6.41876-39.391a2.92623,2.92623,0,0,1-1.66162,1.88722c-1.109-6.39783,9.05881-37.03847,5.8575-38.274-4.5176-1.7434-6.51788,25.7885-7.094,27.88619.23663-6.52784.63253-13.16736,1.32271-19.66055.54568-5.13364,3.93641-13.45088,2.84031-18.40818.51671,2.09088-1.603,10.98593,2.80336,8.53968,2.26664-1.25835,2.22531-20.64594,2.01819-22.70269-.5271.46527-1.70829,3.26293-2.52959,3.11818-2.12581-.37491-.6374-16.13207-1.23924-19.224C56.6906,93.7807,55.413,84.60125,53.20208,79.55537c-3.18628-7.27206-11.57119-15.1282-18.91644-17.427-6.27675-1.96437-21.95526-4.02089-27.68725.03635C.57733,66.42661,2.08788,73.95,1.97662,80.65476,1.79672,91.49541,1.296,102.318.86006,113.14976c-.4278,10.63008-.65169,21.23747-.32624,31.87373.15123,4.9426-1.96271,23.48821,1.307,26.90881a7.37244,7.37244,0,0,1,.48807-1.582c2.84373,1.46919,3.1331,23.91821,3.83081,28.28745,1.70792,10.69543,3.68185,21.44171,6.43066,31.92145,4.41485,16.83147,12.18039,36.38059,29.73038,43.13017,16.3998,6.30723,36.29939-2.9808,46.76611-16.28684,11.56742-14.70532,6.68852-40.7093,7.74583-58.18405,1.465-24.21208,7.03958-48.43763,8.79256-72.8966.71787-10.01628,1.55368-20.04371,2.0417-30.07351.62513-12.84779-3.49654-51.05792,8.76349-59.38671,1.59611,32.07481.495,64.15173.13409,96.25068-.17773,15.80957-.24161,31.55979.64682,47.35119,1.026,18.23579,2.8846,37.40309,9.45987,54.69046,6.52531,17.156,20.84124,36.27328,40.8484,37.38325,19.81128,1.0991,32.76053-15.274,35.41738-33.19856,3.54555-23.92024,1.22524-47.33223,7.36214-71.04417,1.19078-4.601,8.925-54.75852,13.02371-54.82766,2.82693,29.75346-2.00627,59.594,1.73849,89.32524,2.76733,21.97094,9.96187,61.31753,32.53911,72.4371,25.7541,12.68422,46.14756-14.27293,53.15972-35.32047,3.73114-11.19929,9.93794-21.98447,12.3733-33.43763,2.45368-11.53929.41029-28.525,8.75592-37.978,2.14488,11.25352.65767,23.67831.67473,35.13005a107.94694,107.94694,0,0,0,2.82452,24.68713c2.819,13.10491,1.72642,23.56866,11.10962,34.932,2.72879,3.30462,6.22091,6.99763,10.20925,8.69275,7.69367,3.27,3.50292,2.11818,8.26-.71316,3.05163-1.81627,6.20783-7.33948,9.79573-9.7181,2.35046-1.55825,9.22266-4.03311,11.009-6.63219,3.49677-5.08756,3.618-19.02112,5.2166-25.31811,3.0429-11.98587,3.56076-25.20161,5.54454-37.477.92133-5.701,1.72495-11.41772,2.63156-17.11984C400.38305,167.29537,400.14044,171.69878,399.25648,164.986ZM56.57527,129.061l-.73678-2.81873Q57.18681,131.04454,56.57527,129.061Z" fill="#ffffff" data-color-group="0"/><path d="M395.51768,229.00031c-2.63428.20946,2.53428,11.38042,2.28973,10.9811C398.68055,238.1528,400.03142,228.64121,395.51768,229.00031Z" fill="#ffffff" data-color-group="0"/></g></svg>