<svg version="1.1" id="Layer_1" xmlns="http://www.w3.org/2000/svg" xmlns:xlink="http://www.w3.org/1999/xlink" x="0px" y="0px" viewBox="0 0 400 400" enable-background="new 0 0 400 400" xml:space="preserve" width="100%" height="100%" preserveAspectRatio="none"><path fill="#366ed8" d="M174.53772,398.394379l50.925049-0.000244c25.784912-3.276367,50.029846-11.474365,71.78363-23.603271 l-194.492432,0.000244C124.507812,386.920013,148.752808,395.118011,174.53772,398.394379z" data-color-group="0"/><path fill="#366ed8" d="M76.727783,357.500092l246.543945,0.000488c9.095459-7.128662,17.553833-15.03125,25.284912-23.603271 L51.443054,333.89682C59.174011,342.468842,67.632507,350.371429,76.727783,357.500092z" data-color-group="0"/><path fill="#366ed8" d="M22.9104,293.00351c4.326965,8.221924,9.204773,16.107422,14.593323,23.603271l324.992981-0.000488 c5.38855-7.49585,10.266235-15.381592,14.59314-23.603516L22.9104,293.00351z" data-color-group="0"/><path fill="#366ed8" d="M14.84375,275.711761l370.312744-0.000488c3.128418-7.642822,5.796753-15.521484,7.972046-23.6035 L6.871582,252.108261C9.046936,260.190277,11.71521,268.068939,14.84375,275.711761z" data-color-group="0"/><path fill="#366ed8" d="M0.318665,211.214218c0.442383,8.001953,1.35199,15.878906,2.708008,23.603027l393.946472,0.000488 c1.356079-7.723877,2.265747-15.601074,2.70813-23.603027L0.318665,211.214218z" data-color-group="0"/><path fill="#366ed8" d="M397.804443,170.320419L2.195435,170.320908c-1.150391,7.732178-1.85675,15.608643-2.095398,23.603271 l399.799866-0.000977C399.661377,185.928818,398.954834,178.052597,397.804443,170.320419z" data-color-group="0"/><path fill="#366ed8" d="M386.724365,128.235458l-373.448853,0.000244c-2.943054,7.652832-5.427856,15.531494-7.423828,23.604004 l388.296509-0.000488C392.152344,143.766708,389.66748,135.888046,386.724365,128.235458z" data-color-group="0"/><path fill="#366ed8" d="M35.56012,86.153915c-5.210083,7.51123-9.922607,15.392334-14.081543,23.603271l357.042664-0.000244 c-4.158936-8.211182-8.871582-16.092285-14.081543-23.603516L35.56012,86.153915z" data-color-group="0"/><path fill="#366ed8" d="M325.22998,44.068707L74.76947,44.069195c-8.89679,7.154297-17.167664,15.052734-24.71936,23.603519 l299.899353-0.000244C342.397705,59.121441,334.126953,51.223003,325.22998,44.068707z" data-color-group="0"/><path fill="#366ed8" d="M297.923218,25.587507c-21.164185-11.908203-44.711914-20.07251-69.75177-23.603027l-56.343567,0.000244 c-25.039734,3.530518-48.587402,11.694824-69.751465,23.603027L297.923218,25.587507z" data-color-group="0"/></svg>